<svg width="16" height="16" viewBox="0 0 16 16" fill="none" xmlns="http://www.w3.org/2000/svg">
<path d="M5.49967 10.499L10.4997 5.499M7.16634 2.99895L7.55217 2.55229C8.33368 1.77089 9.39358 1.33195 10.4987 1.33203C11.6039 1.33211 12.6637 1.7712 13.4451 2.5527C14.2265 3.33421 14.6654 4.39411 14.6653 5.49925C14.6653 6.60438 14.2262 7.66423 13.4447 8.44562L12.9997 8.83229M8.83313 12.999L8.50229 13.444C7.71167 14.2258 6.64462 14.6643 5.53271 14.6643C4.4208 14.6643 3.35375 14.2258 2.56313 13.444C2.17342 13.0587 1.86404 12.5999 1.65289 12.0941C1.44173 11.5884 1.33301 11.0458 1.33301 10.4978C1.33301 9.94971 1.44173 9.40712 1.65289 8.90138C1.86404 8.39565 2.17342 7.93684 2.56313 7.5515L2.99979 7.16567" stroke="#667085" stroke-width="1.5" stroke-linecap="round" stroke-linejoin="round"/>
</svg>
