<svg width="18" height="20" viewBox="0 0 18 20" fill="none" xmlns="http://www.w3.org/2000/svg">
<path d="M14.3034 3.86468C15.6803 5.24146 16.4678 7.09978 16.4994 9.04669C16.531 10.9936 15.8041 12.8765 14.4725 14.2972L14.3034 14.4722L10.7675 18.0072C10.3189 18.4555 9.71661 18.7166 9.08267 18.7375C8.44874 18.7584 7.83057 18.5375 7.35338 18.1197L7.23338 18.0072L3.69671 14.4713C2.29018 13.0648 1.5 11.1572 1.5 9.16801C1.5 7.17888 2.29018 5.27121 3.69671 3.86468C5.10324 2.45815 7.01091 1.66797 9.00005 1.66797C10.9892 1.66797 12.8968 2.45815 14.3034 3.86468ZM9.00005 6.66801C8.67174 6.66801 8.34665 6.73268 8.04334 6.85832C7.74002 6.98395 7.46443 7.1681 7.23228 7.40025C7.00013 7.63239 6.81598 7.90799 6.69035 8.21131C6.56471 8.51462 6.50005 8.83971 6.50005 9.16801C6.50005 9.49632 6.56471 9.82141 6.69035 10.1247C6.81598 10.428 7.00013 10.7036 7.23228 10.9358C7.46443 11.1679 7.74002 11.3521 8.04334 11.4777C8.34665 11.6034 8.67174 11.668 9.00005 11.668C9.66309 11.668 10.299 11.4046 10.7678 10.9358C11.2367 10.4669 11.5 9.83106 11.5 9.16801C11.5 8.50497 11.2367 7.86909 10.7678 7.40025C10.299 6.93141 9.66309 6.66801 9.00005 6.66801Z" stroke="#667085" stroke-width="1.5" stroke-linecap="round" stroke-linejoin="round"/>
</svg>
