<svg width="16" height="18" viewBox="0 0 16 18" fill="none" xmlns="http://www.w3.org/2000/svg">
<path d="M11.333 1.5V4.83333M4.66634 1.5V4.83333M1.33301 8.16667H14.6663M1.33301 4.83333C1.33301 4.39131 1.5086 3.96738 1.82116 3.65482C2.13372 3.34226 2.55765 3.16667 2.99967 3.16667H12.9997C13.4417 3.16667 13.8656 3.34226 14.1782 3.65482C14.4907 3.96738 14.6663 4.39131 14.6663 4.83333V14.8333C14.6663 15.2754 14.4907 15.6993 14.1782 16.0118C13.8656 16.3244 13.4417 16.5 12.9997 16.5H2.99967C2.55765 16.5 2.13372 16.3244 1.82116 16.0118C1.5086 15.6993 1.33301 15.2754 1.33301 14.8333V4.83333ZM7.16634 12.3333C7.16634 12.5543 7.25414 12.7663 7.41042 12.9226C7.5667 13.0789 7.77866 13.1667 7.99967 13.1667C8.22069 13.1667 8.43265 13.0789 8.58893 12.9226C8.74521 12.7663 8.83301 12.5543 8.83301 12.3333C8.83301 12.1123 8.74521 11.9004 8.58893 11.7441C8.43265 11.5878 8.22069 11.5 7.99967 11.5C7.77866 11.5 7.5667 11.5878 7.41042 11.7441C7.25414 11.9004 7.16634 12.1123 7.16634 12.3333Z" stroke="#667085" stroke-width="1.5" stroke-linecap="round" stroke-linejoin="round"/>
</svg>
