<svg width="18" height="18" viewBox="0 0 18 18" fill="none" xmlns="http://www.w3.org/2000/svg">
<path d="M5.66667 16.5V15.6667C5.66667 15.2246 5.84226 14.8007 6.15482 14.4882C6.46738 14.1756 6.89131 14 7.33333 14H10.6667C11.1087 14 11.5326 14.1756 11.8452 14.4882C12.1577 14.8007 12.3333 15.2246 12.3333 15.6667V16.5M13.1667 7.33333H14.8333C15.2754 7.33333 15.6993 7.50893 16.0118 7.82149C16.3244 8.13405 16.5 8.55797 16.5 9V9.83333M1.5 9.83333V9C1.5 8.55797 1.67559 8.13405 1.98816 7.82149C2.30072 7.50893 2.72464 7.33333 3.16667 7.33333H4.83333M7.33333 9.83333C7.33333 10.2754 7.50893 10.6993 7.82149 11.0118C8.13405 11.3244 8.55797 11.5 9 11.5C9.44203 11.5 9.86595 11.3244 10.1785 11.0118C10.4911 10.6993 10.6667 10.2754 10.6667 9.83333C10.6667 9.39131 10.4911 8.96738 10.1785 8.65482C9.86595 8.34226 9.44203 8.16667 9 8.16667C8.55797 8.16667 8.13405 8.34226 7.82149 8.65482C7.50893 8.96738 7.33333 9.39131 7.33333 9.83333ZM11.5 3.16667C11.5 3.60869 11.6756 4.03262 11.9882 4.34518C12.3007 4.65774 12.7246 4.83333 13.1667 4.83333C13.6087 4.83333 14.0326 4.65774 14.3452 4.34518C14.6577 4.03262 14.8333 3.60869 14.8333 3.16667C14.8333 2.72464 14.6577 2.30072 14.3452 1.98816C14.0326 1.67559 13.6087 1.5 13.1667 1.5C12.7246 1.5 12.3007 1.67559 11.9882 1.98816C11.6756 2.30072 11.5 2.72464 11.5 3.16667ZM3.16667 3.16667C3.16667 3.60869 3.34226 4.03262 3.65482 4.34518C3.96738 4.65774 4.39131 4.83333 4.83333 4.83333C5.27536 4.83333 5.69928 4.65774 6.01184 4.34518C6.3244 4.03262 6.5 3.60869 6.5 3.16667C6.5 2.72464 6.3244 2.30072 6.01184 1.98816C5.69928 1.67559 5.27536 1.5 4.83333 1.5C4.39131 1.5 3.96738 1.67559 3.65482 1.98816C3.34226 2.30072 3.16667 2.72464 3.16667 3.16667Z" stroke="#667085" stroke-width="1.5" stroke-linecap="round" stroke-linejoin="round"/>
</svg>
