<svg width="12" height="18" viewBox="0 0 12 18" fill="none" xmlns="http://www.w3.org/2000/svg">
<path d="M1 16.5V14.8333C1 13.9493 1.35119 13.1014 1.97631 12.4763C2.60143 11.8512 3.44928 11.5 4.33333 11.5H7.66667C8.55072 11.5 9.39857 11.8512 10.0237 12.4763C10.6488 13.1014 11 13.9493 11 14.8333V16.5M2.66667 4.83333C2.66667 5.71739 3.01786 6.56523 3.64298 7.19036C4.2681 7.81548 5.11594 8.16667 6 8.16667C6.88405 8.16667 7.7319 7.81548 8.35702 7.19036C8.98214 6.56523 9.33333 5.71739 9.33333 4.83333C9.33333 3.94928 8.98214 3.10143 8.35702 2.47631C7.7319 1.85119 6.88405 1.5 6 1.5C5.11594 1.5 4.2681 1.85119 3.64298 2.47631C3.01786 3.10143 2.66667 3.94928 2.66667 4.83333Z" stroke="#667085" stroke-width="1.5" stroke-linecap="round" stroke-linejoin="round"/>
</svg>
