<svg width="18" height="18" viewBox="0 0 18 18" fill="none" xmlns="http://www.w3.org/2000/svg">
<g id="Frame 1261155647">
<rect width="18" height="18" fill="white"/>
<path id="Vector" d="M7.31111 6.2H13M7.31111 9H13M7.31111 11.8H13M5.17778 6.2H5.1811V6.20427H5.17778V6.2ZM5.35556 6.2C5.35556 6.25304 5.33683 6.30391 5.30349 6.34142C5.27015 6.37893 5.22493 6.4 5.17778 6.4C5.13063 6.4 5.08541 6.37893 5.05207 6.34142C5.01873 6.30391 5 6.25304 5 6.2C5 6.14696 5.01873 6.09609 5.05207 6.05858C5.08541 6.02107 5.13063 6 5.17778 6C5.22493 6 5.27015 6.02107 5.30349 6.05858C5.33683 6.09609 5.35556 6.14696 5.35556 6.2ZM5.17778 9H5.1811V9.00427H5.17778V9ZM5.35556 9C5.35556 9.05304 5.33683 9.10391 5.30349 9.14142C5.27015 9.17893 5.22493 9.2 5.17778 9.2C5.13063 9.2 5.08541 9.17893 5.05207 9.14142C5.01873 9.10391 5 9.05304 5 9C5 8.94696 5.01873 8.89609 5.05207 8.85858C5.08541 8.82107 5.13063 8.8 5.17778 8.8C5.22493 8.8 5.27015 8.82107 5.30349 8.85858C5.33683 8.89609 5.35556 8.94696 5.35556 9V9ZM5.17778 11.8H5.1811V11.8043H5.17778V11.8ZM5.35556 11.8C5.35556 11.853 5.33683 11.9039 5.30349 11.9414C5.27015 11.9789 5.22493 12 5.17778 12C5.13063 12 5.08541 11.9789 5.05207 11.9414C5.01873 11.9039 5 11.853 5 11.8C5 11.747 5.01873 11.6961 5.05207 11.6586C5.08541 11.6211 5.13063 11.6 5.17778 11.6C5.22493 11.6 5.27015 11.6211 5.30349 11.6586C5.33683 11.6961 5.35556 11.747 5.35556 11.8Z" stroke="#141416" stroke-width="1.2" stroke-linecap="round" stroke-linejoin="round"/>
</g>
</svg>
