<svg width="18" height="18" viewBox="0 0 18 18" fill="none" xmlns="http://www.w3.org/2000/svg">
<rect width="18" height="18" fill="white"/>
<path d="M3.56889 12V5.45455H4.95277V8.15518H7.76207V5.45455H9.14276V12H7.76207V9.29616H4.95277V12H3.56889ZM10.2454 12V11.0028L12.5753 8.84553C12.7734 8.65376 12.9396 8.48118 13.0739 8.32777C13.2102 8.17436 13.3136 8.02415 13.3839 7.87713C13.4542 7.72798 13.4893 7.56712 13.4893 7.39453C13.4893 7.20277 13.4457 7.03764 13.3583 6.89915C13.271 6.75852 13.1516 6.65092 13.0004 6.57635C12.8491 6.49964 12.6776 6.46129 12.4858 6.46129C12.2855 6.46129 12.1108 6.50178 11.9616 6.58274C11.8125 6.66371 11.6974 6.77983 11.6165 6.93111C11.5355 7.08239 11.495 7.26243 11.495 7.47124H10.1815C10.1815 7.04297 10.2784 6.67116 10.4723 6.35582C10.6662 6.04048 10.9379 5.79652 11.2873 5.62393C11.6367 5.45135 12.0394 5.36506 12.4954 5.36506C12.9641 5.36506 13.3722 5.44815 13.7195 5.61435C14.0689 5.77841 14.3406 6.00639 14.5344 6.2983C14.7283 6.5902 14.8253 6.92472 14.8253 7.30185C14.8253 7.54901 14.7763 7.79297 14.6783 8.03374C14.5824 8.2745 14.4109 8.5419 14.1637 8.83594C13.9165 9.12784 13.5682 9.47834 13.1186 9.88743L12.163 10.8239V10.8686H14.9116V12H10.2454Z" fill="#141416"/>
</svg>
