<svg width="18" height="18" viewBox="0 0 18 18" fill="none" xmlns="http://www.w3.org/2000/svg">
<rect width="18" height="18" fill="white"/>
<path d="M3.56889 12V5.45455H4.95277V8.15518H7.76207V5.45455H9.14276V12H7.76207V9.29616H4.95277V12H3.56889ZM12.6648 12.0895C12.1875 12.0895 11.7624 12.0075 11.3896 11.8434C11.0188 11.6772 10.7259 11.4492 10.5107 11.1594C10.2976 10.8675 10.1879 10.5309 10.1815 10.1495H11.5749C11.5835 10.3093 11.6357 10.4499 11.7315 10.5714C11.8295 10.6907 11.9595 10.7834 12.1214 10.8494C12.2834 10.9155 12.4656 10.9485 12.668 10.9485C12.8789 10.9485 13.0653 10.9112 13.2273 10.8366C13.3892 10.7621 13.516 10.6587 13.6076 10.5266C13.6992 10.3945 13.745 10.2422 13.745 10.0696C13.745 9.89489 13.696 9.74041 13.598 9.60618C13.5021 9.46982 13.3636 9.36328 13.1825 9.28658C13.0036 9.20987 12.7905 9.17152 12.5433 9.17152H11.9329V8.15518H12.5433C12.7521 8.15518 12.9364 8.11896 13.0962 8.04652C13.2582 7.97408 13.3839 7.87393 13.4734 7.74609C13.5629 7.61612 13.6076 7.46484 13.6076 7.29226C13.6076 7.1282 13.5682 6.98438 13.4893 6.8608C13.4126 6.73509 13.304 6.63707 13.1634 6.56676C13.0249 6.49645 12.8629 6.46129 12.6776 6.46129C12.4901 6.46129 12.3185 6.49538 12.163 6.56357C12.0075 6.62962 11.8828 6.72443 11.7891 6.84801C11.6953 6.97159 11.6452 7.11648 11.6388 7.28267H10.3125C10.3189 6.90554 10.4265 6.57315 10.6353 6.28551C10.8441 5.99787 11.1254 5.77308 11.479 5.61115C11.8349 5.44709 12.2365 5.36506 12.6839 5.36506C13.1357 5.36506 13.5309 5.44709 13.8697 5.61115C14.2085 5.77521 14.4716 5.9968 14.6591 6.27592C14.8487 6.55291 14.9425 6.86399 14.9403 7.20916C14.9425 7.57564 14.8285 7.88139 14.5984 8.12642C14.3704 8.37145 14.0732 8.52699 13.7067 8.59304V8.64418C14.1882 8.70597 14.5547 8.87322 14.8061 9.14595C15.0597 9.41655 15.1854 9.75533 15.1832 10.1623C15.1854 10.5352 15.0778 10.8665 14.8604 11.1562C14.6452 11.446 14.348 11.674 13.9688 11.8402C13.5895 12.0064 13.1548 12.0895 12.6648 12.0895Z" fill="#141416"/>
</svg>
